HIERARCHY
ROOT Hips
{
	OFFSET 0.000000 0.000000 0.000000
	CHANNELS 6 Xposition Yposition Zposition Zrotation Yrotation Xrotation 
	JOINT LowerBack
	{
		OFFSET 0.000000 0.000000 0.000000
		CHANNELS 3 Zrotation Yrotation Xrotation
		JOINT Spine
		{
			OFFSET 0.028270 2.035590 -0.193380
			CHANNELS 3 Zrotation Yrotation Xrotation
			JOINT Spine1
			{
				OFFSET 0.056720 2.048850 -0.042750
				CHANNELS 3 Zrotation Yrotation Xrotation
				JOINT Neck
				{
					OFFSET 0.000000 0.000000 0.000000
					CHANNELS 3 Zrotation Yrotation Xrotation
					JOINT Neck1
					{
						OFFSET -0.054170 1.746240 0.172020
						CHANNELS 3 Zrotation Yrotation Xrotation
						JOINT Head
						{
							OFFSET 0.104070 1.761360 -0.123970
							CHANNELS 3 Zrotation Yrotation Xrotation
							End Site
							{
								OFFSET 0.000000 0.000000 0.000000
							}
						}
					}
				}
				JOINT LeftShoulder
				{
					OFFSET 0.000000 0.000000 0.000000
					CHANNELS 3 Zrotation Yrotation Xrotation
					JOINT LeftArm
					{
						OFFSET 3.362410 1.200890 -0.311210
						CHANNELS 3 Zrotation Yrotation Xrotation
						JOINT LeftForeArm
						{
							OFFSET 4.983000 -0.000000 -0.000000
							CHANNELS 3 Zrotation Yrotation Xrotation
							JOINT LeftHand
							{
								OFFSET 3.483560 -0.000000 -0.000000
								CHANNELS 3 Zrotation Yrotation Xrotation
								JOINT LeftFingerBase
								{
									OFFSET 0.000000 0.000000 0.000000
									CHANNELS 3 Zrotation Yrotation Xrotation
									JOINT LeftHandIndex1
									{
										OFFSET 0.715260 -0.000000 -0.000000
										CHANNELS 3 Zrotation Yrotation Xrotation
										End Site
										{
											OFFSET 0.000000 0.000000 0.000000
										}
									}
								}
								JOINT LThumb
								{
									OFFSET 0.000000 0.000000 0.000000
									CHANNELS 3 Zrotation Yrotation Xrotation
									End Site
									{
										OFFSET 0.000000 0.000000 0.000000
									}
								}
							}
						}
					}
				}
				JOINT RightShoulder
				{
					OFFSET 0.000000 0.000000 0.000000
					CHANNELS 3 Zrotation Yrotation Xrotation
					JOINT RightArm
					{
						OFFSET -3.136600 1.374050 -0.404650
						CHANNELS 3 Zrotation Yrotation Xrotation
						JOINT RightForeArm
						{
							OFFSET -5.241900 -0.000000 -0.000000
							CHANNELS 3 Zrotation Yrotation Xrotation
							JOINT RightHand
							{
								OFFSET -3.444170 -0.000000 -0.000000
								CHANNELS 3 Zrotation Yrotation Xrotation
								JOINT RightFingerBase
								{
									OFFSET 0.000000 0.000000 0.000000
									CHANNELS 3 Zrotation Yrotation Xrotation
									JOINT RightHandIndex1
									{
										OFFSET -0.622530 -0.000000 -0.000000
										CHANNELS 3 Zrotation Yrotation Xrotation
										End Site
										{
											OFFSET 0.000000 0.000000 0.000000
										}
									}
								}
								JOINT RThumb
								{
									OFFSET 0.000000 0.000000 0.000000
									CHANNELS 3 Zrotation Yrotation Xrotation
									End Site
									{
										OFFSET 0.000000 0.000000 0.000000
									}
								}
							}
						}
					}
				}
			}
		}
	}
}
}
MOTION
Frames: 12
Frame Time: 0.008333
3.546131 17.547837 0.517953 165.161418 -84.262927 -147.208383 0.543423 0.757919 1.881331 -0.715544 0.722207 -2.524683 -5.863377 0.646401 1.000649 7.308007 1.287957 -2.975514 -3.416693 -0.298875 1.096530 0.000000 0.000000 0.000000 -2.841903 6.920920 2.659869 -46.510451 11.553026 28.850850 -3.974160 -39.791820 -0.046519 -16.453122 1.955604 -0.302736 -0.106501 -0.150536 0.000000 0.000000 0.000000 0.000000 0.000000 0.000000 0.000000 12.788400 4.628949 1.753997 50.148973 29.569272 22.590208 2.561614 45.808386 0.023967 9.918679 10.380662 0.924227 -0.045453 -0.184995 -0.000000 0.000000 0.000000 0.000000 0.000000 0.000000 0.000000 
3.357176 17.514514 0.506333 167.091390 -84.060394 -149.122869 0.359900 0.906601 1.777135 -0.723127 0.882454 -2.528736 -5.691904 0.809100 1.050554 6.964398 1.177388 -3.063632 -3.273507 -0.289043 1.077722 0.000000 0.000000 0.000000 -3.059339 7.440992 2.598876 -46.595223 12.314947 28.656478 -4.017514 -39.295599 -0.047881 -16.495864 2.073333 -0.321077 -0.106921 -0.153871 0.000000 0.000000 0.000000 0.000000 0.000000 0.000000 0.000000 11.850096 4.696039 1.733317 49.369236 30.676254 23.485645 2.413899 47.530736 0.023990 9.867197 10.364652 0.919499 -0.053035 -0.194424 -0.000000 0.000000 0.000000 0.000000 0.000000 0.000000 0.000000 
3.167455 17.475153 0.496480 169.137356 -83.861956 -151.156725 0.211861 1.051069 1.680491 -0.724071 1.036790 -2.531875 -5.520648 0.965752 1.094444 6.610117 1.037935 -3.153685 -3.127976 -0.278957 1.058793 0.000000 0.000000 0.000000 -3.303979 7.913478 2.535893 -46.647546 13.165452 28.358060 -4.056285 -38.911945 -0.049249 -16.536982 2.208921 -0.341917 -0.107028 -0.157145 0.000000 0.000000 0.000000 0.000000 0.000000 0.000000 0.000000 10.893558 4.723418 1.716820 48.533152 31.799959 24.255357 2.269992 49.224058 0.024056 9.844533 10.385225 0.920769 -0.060985 -0.204282 -0.000000 0.000000 0.000000 0.000000 0.000000 0.000000 0.000000 
2.976931 17.429937 0.488831 171.545838 -83.662810 -153.566119 0.120385 1.195688 1.601409 -0.713645 1.188740 -2.528551 -5.346075 1.120333 1.144929 6.243762 0.898666 -3.255860 -2.978003 -0.268255 1.036496 0.000000 0.000000 0.000000 -3.537730 8.456681 2.476159 -46.717306 13.914129 28.041043 -4.095955 -38.511441 -0.050272 -16.556486 2.323660 -0.359350 -0.107206 -0.159572 0.000000 0.000000 0.000000 0.000000 0.000000 0.000000 0.000000 9.900548 4.743845 1.686323 47.650621 32.896189 24.859734 2.121968 50.898348 0.024034 9.811258 10.405744 0.921034 -0.069355 -0.214399 -0.000000 0.000000 0.000000 0.000000 0.000000 0.000000 0.000000 
2.785262 17.379512 0.483093 174.196309 -83.462624 -156.236342 0.078636 1.337719 1.545324 -0.693456 1.336053 -2.520053 -5.172198 1.270335 1.193585 5.872277 0.749122 -3.362478 -2.826821 -0.257279 1.012990 0.000000 0.000000 0.000000 -3.778768 9.008815 2.417378 -46.786771 14.655192 27.655304 -4.134443 -38.145507 -0.051098 -16.559882 2.430364 -0.375178 -0.107371 -0.161539 0.000000 0.000000 0.000000 0.000000 0.000000 0.000000 0.000000 8.895528 4.743605 1.650117 46.713604 33.973094 25.318113 1.973963 52.540134 0.023960 9.781515 10.437795 0.922697 -0.078093 -0.224792 -0.000000 0.000000 0.000000 0.000000 0.000000 0.000000 0.000000 
2.592247 17.324446 0.479091 177.018802 -83.262996 -159.103900 0.080883 1.475038 1.518119 -0.664470 1.477080 -2.506217 -5.000921 1.414030 1.237347 5.501945 0.592715 -3.470186 -2.676153 -0.246185 0.989102 0.000000 0.000000 0.000000 -4.026873 9.557657 2.359970 -46.856867 15.400454 27.189950 -4.172453 -37.812315 -0.051743 -16.548145 2.527486 -0.389202 -0.107595 -0.163089 0.000000 0.000000 0.000000 0.000000 0.000000 0.000000 0.000000 7.892201 4.724985 1.608723 45.722444 35.017122 25.629735 1.826604 54.146047 0.023839 9.754730 10.474642 0.925156 -0.087180 -0.235396 0.000000 0.000000 0.000000 0.000000 0.000000 0.000000 0.000000 
2.397687 17.265444 0.476525 179.881713 -83.068452 -162.039688 0.112677 1.604005 1.521983 -0.629299 1.609035 -2.486991 -4.833947 1.548576 1.275915 5.140854 0.429710 -3.578322 -2.527856 -0.235111 0.964886 0.000000 0.000000 0.000000 -4.278369 10.100637 2.304805 -46.928280 16.143362 26.644164 -4.211116 -37.502272 -0.052210 -16.522873 2.612520 -0.401022 -0.107975 -0.164230 0.000000 0.000000 0.000000 0.000000 0.000000 0.000000 0.000000 6.907720 4.686530 1.562200 44.678597 36.019666 25.797307 1.680709 55.711718 0.023664 9.731810 10.509775 0.927812 -0.096605 -0.246121 0.000000 0.000000 0.000000 0.000000 0.000000 0.000000 0.000000 
2.201530 17.203096 0.475173 -177.290725 -82.885520 -164.969203 0.163449 1.721684 1.557983 -0.589749 1.729611 -2.461682 -4.671953 1.671690 1.312743 4.794923 0.256984 -3.689958 -2.383006 -0.224086 0.939377 0.000000 0.000000 0.000000 -4.525298 10.653553 2.253198 -47.007937 16.846330 26.031778 -4.251745 -37.189322 -0.052463 -16.484567 2.679869 -0.409836 -0.108607 -0.164861 0.000000 0.000000 0.000000 0.000000 0.000000 0.000000 0.000000 5.953619 4.623667 1.508634 43.586788 36.977582 25.826122 1.536896 57.231294 0.023436 9.713449 10.536824 0.930164 -0.106379 -0.256836 0.000000 0.000000 0.000000 0.000000 0.000000 0.000000 0.000000 
2.003573 17.138349 0.474534 -174.730229 -82.725720 -167.647338 0.200378 1.823423 1.612218 -0.552638 1.835504 -2.434679 -4.517672 1.779849 1.342649 4.474708 0.077126 -3.798847 -2.244487 -0.213430 0.914324 0.000000 0.000000 0.000000 -4.771652 11.178904 2.205178 -47.084503 17.552033 25.330071 -4.295197 -36.892017 -0.052614 -16.441292 2.739015 -0.417346 -0.109563 -0.165194 0.000000 0.000000 0.000000 0.000000 0.000000 0.000000 0.000000 5.054852 4.537749 1.452937 42.448711 37.875014 25.722383 1.397388 58.704147 0.023195 9.701775 10.549148 0.931916 -0.116370 -0.267479 0.000000 0.000000 0.000000 0.000000 0.000000 0.000000 0.000000 
1.803782 17.071735 0.474640 -172.384946 -82.594449 -170.120828 0.223113 1.909689 1.680323 -0.518190 1.927073 -2.405635 -4.370922 1.873510 1.372007 4.182164 -0.115312 -3.910679 -2.112460 -0.203075 0.888121 0.000000 0.000000 0.000000 -5.007259 11.705307 2.161952 -47.169989 18.202167 24.564548 -4.342475 -36.572743 -0.052606 -16.392815 2.785527 -0.422652 -0.110909 -0.165061 0.000000 0.000000 0.000000 0.000000 0.000000 0.000000 0.000000 4.214314 4.423658 1.392185 41.275306 38.712260 25.497140 1.262810 60.125355 0.022944 9.698185 10.542800 0.932862 -0.126581 -0.277897 0.000000 0.000000 0.000000 0.000000 0.000000 0.000000 0.000000 
1.601923 17.004014 0.475318 -170.304882 -82.497818 -172.324101 0.217755 1.980630 1.748170 -0.489848 2.004746 -2.377803 -4.233324 1.953021 1.399884 3.922289 -0.319936 -4.023147 -1.988489 -0.193187 0.861453 0.000000 0.000000 0.000000 -5.232889 12.217839 2.123398 -47.260966 18.805528 23.731163 -4.393986 -36.231181 -0.052496 -16.343473 2.826812 -0.427153 -0.112681 -0.164556 0.000000 0.000000 0.000000 0.000000 0.000000 0.000000 0.000000 3.444339 4.282702 1.329050 40.075514 39.477820 25.161730 1.134954 61.495185 0.022725 9.705578 10.514963 0.932908 -0.136911 -0.288004 0.000000 0.000000 0.000000 0.000000 0.000000 0.000000 0.000000 
1.397958 16.935831 0.476491 -168.465566 -82.436292 -174.273857 0.181086 2.038628 1.806489 -0.468912 2.070745 -2.352887 -4.105817 2.020608 1.427392 3.697052 -0.537241 -4.135989 -1.873342 -0.183838 0.834419 0.000000 0.000000 0.000000 -5.446794 12.715460 2.089403 -47.359628 19.350067 22.836353 -4.449922 -35.855196 -0.052307 -16.294379 2.867846 -0.431551 -0.114902 -0.163696 0.000000 0.000000 0.000000 0.000000 0.000000 0.000000 0.000000 2.749816 4.116359 1.264298 38.862483 40.163308 24.729913 1.014978 62.814419 0.022568 9.726418 10.464629 0.932354 -0.147292 -0.297706 0.000000 0.000000 0.000000 0.000000 0.000000 0.000000 0.000000 
